HIERARCHY
ROOT Hips
{
 OFFSET 0.000000 0.000000 0.000000
 CHANNELS 6 Xposition Yposition Zposition Yrotation Xrotation Zrotation
 JOINT Chest
 {
  OFFSET 0.000000 9.910571 -0.011835
  CHANNELS 3 Yrotation Xrotation Zrotation
  JOINT Chest2
  {
   OFFSET 0.000000 10.789473 0.021497
   CHANNELS 3 Yrotation Xrotation Zrotation
   JOINT Chest3
   {
    OFFSET 0.000000 9.748205 0.000000
    CHANNELS 3 Yrotation Xrotation Zrotation
    JOINT Chest4
    {
     OFFSET 0.000000 9.748205 0.000000
     CHANNELS 3 Yrotation Xrotation Zrotation
     JOINT Neck
     {
      OFFSET 0.000000 13.998479 0.000000
      CHANNELS 3 Yrotation Xrotation Zrotation
      JOINT Head
      {
       OFFSET 0.000000 9.082285 0.051121
       CHANNELS 3 Yrotation Xrotation Zrotation
       End Site
       {
        OFFSET 0.000000 17.246134 0.026702
       }
      }
     }
     JOINT RightCollar
     {
      OFFSET -3.284495 7.824262 0.000000
      CHANNELS 3 Yrotation Xrotation Zrotation
      JOINT RightShoulder
      {
       OFFSET -15.534540 0.000000 0.000000
       CHANNELS 3 Yrotation Xrotation Zrotation
       JOINT RightElbow
       {
        OFFSET 0.000000 -28.251216 0.000000
        CHANNELS 3 Yrotation Xrotation Zrotation
        JOINT RightWrist
        {
         OFFSET 0.000000 -23.418114 0.012537
         CHANNELS 3 Yrotation Xrotation Zrotation
         End Site
         {
          OFFSET 0.000000 -17.723959 0.000000
         }
        }
       }
      }
     }
     JOINT LeftCollar
     {
      OFFSET 3.284495 7.824262 0.000000
      CHANNELS 3 Yrotation Xrotation Zrotation
      JOINT LeftShoulder
      {
       OFFSET 15.534540 0.000000 0.000000
       CHANNELS 3 Yrotation Xrotation Zrotation
       JOINT LeftElbow
       {
        OFFSET 0.000000 -28.251216 0.000000
        CHANNELS 3 Yrotation Xrotation Zrotation
        JOINT LeftWrist
        {
         OFFSET 0.000000 -23.418114 0.012537
         CHANNELS 3 Yrotation Xrotation Zrotation
         End Site
         {
          OFFSET 0.000000 -17.723959 0.000000
         }
        }
       }
      }
     }
    }
   }
  }
 }
 JOINT RightHip
 {
  OFFSET -8.142657 0.057990 0.005917
  CHANNELS 3 Yrotation Xrotation Zrotation
  JOINT RightKnee
  {
   OFFSET 0.000000 -49.716894 0.008478
   CHANNELS 3 Yrotation Xrotation Zrotation
   JOINT RightAnkle
   {
    OFFSET 0.000000 -43.994153 0.004166
    CHANNELS 3 Yrotation Xrotation Zrotation
    JOINT RightToe
    {
     OFFSET 0.000000 -7.619154 17.822051
     CHANNELS 3 Yrotation Xrotation Zrotation
     End Site
     {
      OFFSET 0.000000 -1.595627 7.159905
     }
    }
   }
  }
 }
 JOINT LeftHip
 {
  OFFSET 8.142657 0.057990 0.005917
  CHANNELS 3 Yrotation Xrotation Zrotation
  JOINT LeftKnee
  {
   OFFSET 0.000000 -49.716894 0.008478
   CHANNELS 3 Yrotation Xrotation Zrotation
   JOINT LeftAnkle
   {
    OFFSET 0.000000 -43.994153 0.004166
    CHANNELS 3 Yrotation Xrotation Zrotation
    JOINT LeftToe
    {
     OFFSET 0.000000 -7.619154 17.822051
     CHANNELS 3 Yrotation Xrotation Zrotation
     End Site
     {
      OFFSET 0.000000 -1.595627 7.159905
     }
    }
   }
  }
 }
}
MOTION
Frames: 5
Frame Time: 0.008333
188.872124 103.890596 293.073713 -38.008303 -8.627045 5.391070 0.700365 10.843827 2.708068 0.065132 4.913548 1.002026 0.065132 4.913548 1.002026 0.040746 3.685279 0.750533 2.171239 30.243138 -4.718283 4.662042 20.245782 -8.739576 -0.910900 5.191327 9.868862 7.481385 -15.664624 -18.969934 7.276492 -7.423815 -5.499763 12.757014 -7.824266 -16.246431 4.259473 3.607654 -8.007722 -0.012123 -12.004702 9.140063 20.107536 -20.078854 -22.164710 -54.976450 9.554409 21.950653 -18.576016 6.781866 -11.030634 -8.040510 -2.619311 3.935850 -5.667513 -6.742366 9.735919 -0.146720 1.597677 -1.079540 1.792963 -4.433529 -1.737543 -0.569965 25.336187 1.958777 -2.541268 -6.442805 -7.998573 -0.068211 -2.558981 -1.395825
188.935307 103.893973 293.011836 -38.315224 -8.606268 5.482120 0.959367 10.824262 2.595910 0.118928 4.937017 0.964165 0.118928 4.937017 0.964165 0.081335 3.702961 0.721713 2.376535 30.423436 -4.764925 5.021583 20.601260 -8.850635 -0.876240 5.256274 9.809745 7.317607 -15.616358 -18.871421 7.317157 -7.660228 -5.398629 12.718031 -7.875115 -16.291145 4.350794 3.730002 -7.852375 0.358910 -12.048446 8.998357 20.439121 -19.168279 -22.287091 -54.795251 9.659493 23.547408 -18.490707 6.703419 -11.094236 -8.063416 -2.645753 3.919914 -5.363861 -6.985708 9.994085 -0.207000 1.593318 -1.064291 1.986024 -4.662864 -1.754078 -0.564005 26.298374 2.175457 -2.531756 -6.546879 -7.847172 -0.020697 -2.636671 -1.422287
188.864458 103.901050 292.987011 -39.257981 -8.973859 5.264665 1.877075 11.234431 2.899762 0.168724 4.959251 0.924729 0.168724 4.959251 0.924729 0.118944 3.719704 0.691741 2.580773 30.593260 -4.797558 5.377333 20.936709 -8.936161 -0.845914 5.305194 9.749031 7.168491 -15.546407 -18.796826 7.380996 -7.890208 -5.276795 12.670211 -7.917486 -16.303353 4.464660 3.842586 -7.716753 0.654614 -12.094858 8.912344 20.810010 -18.369405 -22.446136 -54.493419 9.847763 25.010323 -17.792603 7.196134 -10.904039 -8.082663 -2.671417 3.915911 -4.943824 -7.111009 10.253744 -0.378587 1.433634 -1.090337 2.699812 -4.448368 -1.241265 -0.598699 27.641984 2.426219 -2.697250 -6.988281 -7.863010 0.152711 -2.772420 -1.380136
188.895514 103.903066 292.951810 -39.706644 -8.985301 5.316679 2.262769 11.245416 2.823987 0.215259 4.979980 0.884060 0.215259 4.979980 0.884060 0.154123 3.735306 0.660869 2.788654 30.757091 -4.822854 5.738519 21.261281 -9.008639 -0.811465 5.346626 9.682266 7.043502 -15.466083 -18.724739 7.442709 -8.109601 -5.143138 12.628464 -7.951096 -16.291128 4.590615 3.943453 -7.586903 0.880057 -12.139346 8.881419 21.266808 -17.401358 -22.589515 -54.229626 9.921917 26.462909 -17.574224 7.187052 -10.937817 -8.063807 -2.694944 3.917270 -4.663593 -7.331549 10.487739 -0.464509 1.407777 -1.080202 2.936423 -4.326277 -1.050088 -0.663087 28.524727 2.631564 -2.724329 -7.361950 -7.864162 0.184891 -2.769954 -1.378691
189.001894 103.905544 292.903851 -39.918368 -8.951281 5.411614 2.398197 11.184159 2.657079 0.258374 4.998587 0.843937 0.258374 4.998587 0.843937 0.186740 3.749306 0.630433 2.990949 30.909321 -4.834618 6.088274 21.563151 -9.055869 -0.792879 5.388954 9.616574 6.960820 -15.376034 -18.676388 7.494307 -8.305120 -5.002076 12.584395 -7.978331 -16.248775 4.720177 4.045014 -7.474928 1.038350 -12.186641 8.895929 21.716237 -16.532720 -22.738587 -53.917905 10.072977 27.737386 -17.586096 7.061289 -11.042642 -8.063730 -2.714122 3.922990 -4.433902 -7.515544 10.697794 -0.499645 1.396210 -1.046178 2.939053 -4.087500 -0.871593 -0.782620 29.362284 2.825334 -2.691176 -7.847089 -7.911231 0.152964 -2.769645 -1.400421
